<svg xmlns="http://www.w3.org/2000/svg" version="1.1" xmlns:xlink="http://www.w3.org/1999/xlink" xmlns:svgjs="http://svgjs.com/svgjs" width="1920" height="1080" preserveAspectRatio="none" viewBox="0 0 1920 1080"><g mask="url(&quot;#SvgjsMask1084&quot;)" fill="none"><rect width="1920" height="1080" x="0" y="0" fill="rgba(29, 29, 29, 1)"></rect><path d="M45 1080L1125 0L1654.5 0L574.5 1080z" fill="url(#SvgjsLinearGradient1085)"></path><path d="M716.6 1080L1796.6 0L2428.1 0L1348.1 1080z" fill="url(#SvgjsLinearGradient1085)"></path><path d="M1825 1080L745 0L170.5 0L1250.5 1080z" fill="url(#SvgjsLinearGradient1086)"></path><path d="M1172.4 1080L92.40000000000009 0L-365.0999999999999 0L714.9000000000001 1080z" fill="url(#SvgjsLinearGradient1086)"></path><path d="M1196.1930954164984 1080L1920 356.1930954164984L1920 1080z" fill="url(#SvgjsLinearGradient1085)"></path><path d="M0 1080L723.8069045835016 1080L 0 356.1930954164984z" fill="url(#SvgjsLinearGradient1086)"></path></g><defs><mask id="SvgjsMask1084"><rect width="1920" height="1080" fill="#ffffff"></rect></mask><linearGradient x1="0%" y1="100%" x2="100%" y2="0%" id="SvgjsLinearGradient1085"><stop stop-color="rgba(16, 16, 16, 1)" offset="0"></stop><stop stop-opacity="0" stop-color="rgba(16, 16, 16, 1)" offset="0.66"></stop></linearGradient><linearGradient x1="100%" y1="100%" x2="0%" y2="0%" id="SvgjsLinearGradient1086"><stop stop-color="rgba(16, 16, 16, 1)" offset="0"></stop><stop stop-opacity="0" stop-color="rgba(16, 16, 16, 1)" offset="0.66"></stop></linearGradient></defs></svg>